<svg width="32" height="33" viewBox="0 0 32 33" fill="none" xmlns="http://www.w3.org/2000/svg">
<g filter="url(#filter0_ddd_908_934)">
<path d="M6.37503 14.6645V13.9995V13.3258L4.69503 11.8558C4.38534 11.5828 4.18212 11.2091 4.12128 10.8009C4.06043 10.3926 4.14588 9.97589 4.36253 9.6245L6.42753 6.1245C6.58097 5.85873 6.8016 5.63798 7.06729 5.48441C7.33299 5.33083 7.63439 5.24982 7.94128 5.2495C8.13146 5.24804 8.3206 5.2776 8.50128 5.337L10.6275 6.0545C10.9946 5.81056 11.3776 5.59132 11.7738 5.39825L12.22 3.19325C12.3 2.79041 12.5192 2.42854 12.8391 2.17099C13.1591 1.91344 13.5594 1.77663 13.97 1.7845H18.065C18.4757 1.77663 18.876 1.91344 19.1959 2.17099C19.5159 2.42854 19.735 2.79041 19.815 3.19325L20.2613 5.39825C20.6603 5.59128 21.0462 5.81051 21.4163 6.0545L23.4988 5.302C23.6814 5.25442 23.8705 5.23669 24.0588 5.2495C24.3657 5.24982 24.6671 5.33083 24.9328 5.48441C25.1984 5.63798 25.4191 5.85873 25.5725 6.1245L27.6375 9.6245C27.8418 9.97537 27.9177 10.3863 27.8522 10.787C27.7868 11.1877 27.584 11.5531 27.2788 11.8208L25.625 13.3345V14.6733L27.2788 16.1433C27.5927 16.4128 27.8009 16.7847 27.8666 17.1932C27.9323 17.6017 27.8511 18.0202 27.6375 18.3745L25.5725 21.8745C25.4191 22.1403 25.1984 22.361 24.9328 22.5146C24.6671 22.6682 24.3657 22.7492 24.0588 22.7495C23.8686 22.751 23.6794 22.7214 23.4988 22.662L21.3725 21.9445C21.0054 22.1884 20.6225 22.4077 20.2263 22.6008L19.78 24.8058C19.7 25.2086 19.4809 25.5705 19.1609 25.828C18.841 26.0856 18.4407 26.2224 18.03 26.2145H13.9C13.4894 26.2224 13.0891 26.0856 12.7691 25.828C12.4492 25.5705 12.23 25.2086 12.15 24.8058L11.7038 22.6008C11.3047 22.4077 10.9189 22.1885 10.5488 21.9445L8.43128 22.662C8.25061 22.7214 8.06146 22.751 7.87128 22.7495C7.56439 22.7492 7.26299 22.6682 6.99729 22.5146C6.7316 22.361 6.51097 22.1403 6.35753 21.8745L4.36253 18.3745C4.15829 18.0236 4.0824 17.6127 4.14784 17.212C4.21329 16.8113 4.41601 16.4459 4.72128 16.1783L6.37503 14.6645ZM7.94128 20.9995L10.9425 19.9845C11.6451 20.5796 12.4481 21.0448 13.3138 21.3583L13.935 24.4995H18.065L18.6863 21.3933C19.5452 21.0709 20.3438 20.6065 21.0488 20.0195L24.0588 20.9995L26.1238 17.4995L23.7438 15.3995C23.9056 14.4938 23.9056 13.5665 23.7438 12.6608L26.1238 10.4995L24.0588 6.9995L21.0575 8.0145C20.355 7.41941 19.552 6.95422 18.6863 6.64075L18.065 3.4995H13.935L13.3138 6.60575C12.4549 6.92812 11.6563 7.3925 10.9513 7.9795L7.94128 6.9995L5.87628 10.4995L8.25628 12.5995C8.09449 13.5052 8.09449 14.4325 8.25628 15.3383L5.87628 17.4995L7.94128 20.9995Z" fill="white"/>
<path d="M16 19.25C17.0383 19.25 18.0534 18.9421 18.9167 18.3652C19.7801 17.7883 20.453 16.9684 20.8504 16.0091C21.2477 15.0498 21.3517 13.9942 21.1491 12.9758C20.9465 11.9574 20.4465 11.0219 19.7123 10.2877C18.9781 9.55347 18.0426 9.05345 17.0242 8.85088C16.0058 8.64831 14.9502 8.75227 13.9909 9.14963C13.0316 9.547 12.2117 10.2199 11.6348 11.0833C11.0579 11.9466 10.75 12.9617 10.75 14C10.743 14.6914 10.874 15.3772 11.1353 16.0174C11.3967 16.6575 11.7831 17.239 12.272 17.728C12.761 18.2169 13.3425 18.6033 13.9826 18.8647C14.6228 19.126 15.3086 19.257 16 19.25V19.25ZM16 10.5C16.4626 10.4892 16.9225 10.5724 17.352 10.7445C17.7815 10.9165 18.1717 11.174 18.4989 11.5011C18.826 11.8283 19.0835 12.2185 19.2555 12.648C19.4276 13.0775 19.5108 13.5374 19.5 14C19.5108 14.4626 19.4276 14.9225 19.2555 15.352C19.0835 15.7816 18.826 16.1717 18.4989 16.4989C18.1717 16.826 17.7815 17.0835 17.352 17.2555C16.9225 17.4276 16.4626 17.5108 16 17.5C15.5374 17.5108 15.0775 17.4276 14.648 17.2555C14.2184 17.0835 13.8283 16.826 13.5011 16.4989C13.174 16.1717 12.9165 15.7816 12.7445 15.352C12.5724 14.9225 12.4892 14.4626 12.5 14C12.4892 13.5374 12.5724 13.0775 12.7445 12.648C12.9165 12.2185 13.174 11.8283 13.5011 11.5011C13.8283 11.174 14.2184 10.9165 14.648 10.7445C15.0775 10.5724 15.5374 10.4892 16 10.5Z" fill="white"/>
</g>
<defs>
<filter id="filter0_ddd_908_934" x="-1.29412" y="0" width="34.5882" height="34.5882" filterUnits="userSpaceOnUse" color-interpolation-filters="sRGB">
<feFlood flood-opacity="0" result="BackgroundImageFix"/>
<feColorMatrix in="SourceAlpha" type="matrix" values="0 0 0 0 0 0 0 0 0 0 0 0 0 0 0 0 0 0 127 0" result="hardAlpha"/>
<feOffset dy="3.29412"/>
<feGaussianBlur stdDeviation="1.64706"/>
<feComposite in2="hardAlpha" operator="out"/>
<feColorMatrix type="matrix" values="0 0 0 0 0 0 0 0 0 0 0 0 0 0 0 0 0 0 0.25 0"/>
<feBlend mode="normal" in2="BackgroundImageFix" result="effect1_dropShadow_908_934"/>
<feColorMatrix in="SourceAlpha" type="matrix" values="0 0 0 0 0 0 0 0 0 0 0 0 0 0 0 0 0 0 127 0" result="hardAlpha"/>
<feOffset dy="3.29412"/>
<feGaussianBlur stdDeviation="1.64706"/>
<feComposite in2="hardAlpha" operator="out"/>
<feColorMatrix type="matrix" values="0 0 0 0 0 0 0 0 0 0 0 0 0 0 0 0 0 0 0.25 0"/>
<feBlend mode="normal" in2="effect1_dropShadow_908_934" result="effect2_dropShadow_908_934"/>
<feColorMatrix in="SourceAlpha" type="matrix" values="0 0 0 0 0 0 0 0 0 0 0 0 0 0 0 0 0 0 127 0" result="hardAlpha"/>
<feOffset dy="3.29412"/>
<feGaussianBlur stdDeviation="1.64706"/>
<feComposite in2="hardAlpha" operator="out"/>
<feColorMatrix type="matrix" values="0 0 0 0 0 0 0 0 0 0 0 0 0 0 0 0 0 0 0.25 0"/>
<feBlend mode="normal" in2="effect2_dropShadow_908_934" result="effect3_dropShadow_908_934"/>
<feBlend mode="normal" in="SourceGraphic" in2="effect3_dropShadow_908_934" result="shape"/>
</filter>
</defs>
</svg>
